<?xml version="1.0" standalone="no"?><!DOCTYPE svg PUBLIC "-//W3C//DTD SVG 1.1//EN" "http://www.w3.org/Graphics/SVG/1.1/DTD/svg11.dtd"><svg t="1521887969891" class="icon" style="" viewBox="0 0 1024 1024" version="1.1" xmlns="http://www.w3.org/2000/svg" p-id="1834" xmlns:xlink="http://www.w3.org/1999/xlink" width="512" height="512"><defs><style type="text/css"></style></defs><path d="M619.177428 673.107987C529.065609 750.931831 556.372221 614.398771 560.468212 595.284143s62.805208-136.53306 19.797294-156.330354-175.444982 77.823844-175.444982 77.823844-21.84529 15.701302-19.797294 19.797294c14.335971 25.258616 77.823844-19.797294 77.823844-19.797294s21.84529-17.749298 19.797294 0A1501.863663 1501.863663 0 0 0 443.732446 750.931831c9.557314 51.882563 91.47715 30.037273 155.647689-38.911922s19.797294-38.911922 19.797293-38.911922z" fill="" p-id="1835"></path><path d="M570.593548 311.310847m-3.715568 68.165341a68.26653 68.26653 0 1 0 7.431135-136.330682 68.26653 68.26653 0 1 0-7.431135 136.330682Z" fill="" p-id="1836"></path><path d="M887.464892 858.110284a505.854988 505.854988 0 0 0 136.53306-346.111308A511.998976 511.998976 0 1 0 511.998976 1023.997952h477.865711a34.133265 34.133265 0 0 0 22.527955-60.074547zM511.998976 955.731422A443.732446 443.732446 0 1 1 955.731422 511.998976a438.953789 438.953789 0 0 1-140.629052 323.583353 34.133265 34.133265 0 0 0 4.095992 51.882563l81.23717 68.26653z" fill="" p-id="1837"></path></svg>