<?xml version="1.0" standalone="no"?><!DOCTYPE svg PUBLIC "-//W3C//DTD SVG 1.1//EN" "http://www.w3.org/Graphics/SVG/1.1/DTD/svg11.dtd"><svg t="1521887791098" class="icon" style="" viewBox="0 0 1024 1024" version="1.1" xmlns="http://www.w3.org/2000/svg" p-id="913" xmlns:xlink="http://www.w3.org/1999/xlink" width="512" height="512"><defs><style type="text/css"></style></defs><path d="M1007.483871 360.712258a40.299355 40.299355 0 0 0-3.303226-12.552258l-3.303226-5.285161-4.624516-4.624516-462.451613-330.322581a33.032258 33.032258 0 0 0-38.317419 0l-462.451613 330.322581-9.249032 5.285161-3.303226 5.285161a32.371613 32.371613 0 0 0 0 5.285161 32.371613 32.371613 0 0 0 0 6.606452V990.967742a33.032258 33.032258 0 0 0 33.032258 33.032258h330.322581A33.032258 33.032258 0 0 0 412.903226 990.967742v-231.225807a99.096774 99.096774 0 1 1 198.193548 0V990.967742a33.032258 33.032258 0 0 0 33.032258 33.032258h330.322581a33.032258 33.032258 0 0 0 33.032258-33.032258V363.354839v-2.642581z m-330.322581 594.580645v-198.193548a165.16129 165.16129 0 1 0-330.32258 0v198.193548H82.580645v-574.76129l429.419355-307.2L941.419355 380.531613v577.403871z" fill="" p-id="914"></path></svg>