<?xml version="1.0" standalone="no"?><!DOCTYPE svg PUBLIC "-//W3C//DTD SVG 1.1//EN" "http://www.w3.org/Graphics/SVG/1.1/DTD/svg11.dtd"><svg t="1521887897707" class="icon" style="" viewBox="0 0 1024 1024" version="1.1" xmlns="http://www.w3.org/2000/svg" p-id="1441" xmlns:xlink="http://www.w3.org/1999/xlink" width="512" height="512"><defs><style type="text/css"></style></defs><path d="M992.64 32a106.88 106.88 0 0 0-106.24-27.52L78.08 234.88A108.16 108.16 0 0 0 32 415.36l174.08 174.72a32 32 0 0 0 45.44-45.44L76.8 369.92a44.16 44.16 0 0 1 19.2-73.6L903.68 64a41.6 41.6 0 0 1 8.96 0L320 658.56a32.64 32.64 0 0 0-9.6 22.4v304a32 32 0 0 0 64 0v-226.56L608 992a106.88 106.88 0 0 0 76.16 32 109.44 109.44 0 0 0 27.52-3.84 106.88 106.88 0 0 0 76.8-74.88l231.04-807.68A106.24 106.24 0 0 0 992.64 32z m-264.96 896a44.16 44.16 0 0 1-73.6 19.2l-266.24-266.24L960 110.72a42.24 42.24 0 0 1 0 9.6z" fill="" p-id="1442"></path></svg>