<?xml version="1.0" standalone="no"?><!DOCTYPE svg PUBLIC "-//W3C//DTD SVG 1.1//EN" "http://www.w3.org/Graphics/SVG/1.1/DTD/svg11.dtd"><svg t="1521887924312" class="icon" style="" viewBox="0 0 1024 1024" version="1.1" xmlns="http://www.w3.org/2000/svg" p-id="1572" xmlns:xlink="http://www.w3.org/1999/xlink" width="512" height="512"><defs><style type="text/css"></style></defs><path d="M172.157635 927.99266H735.98812a96.638369 96.638369 0 0 0 94.078413 95.99838h63.99892A96.638369 96.638369 0 0 0 991.9838 927.99266v-63.99892a96.638369 96.638369 0 0 0-97.278358-95.99838h-63.99892A96.638369 96.638369 0 0 0 735.98812 863.99374H193.917268v-319.9946H735.98812a96.638369 96.638369 0 0 0 94.078413 95.99838h63.99892A96.638369 96.638369 0 0 0 991.9838 543.99914v-63.99892A96.638369 96.638369 0 0 0 894.705442 384.00184h-63.99892A96.638369 96.638369 0 0 0 735.98812 480.00022H193.917268V256.004A96.638369 96.638369 0 0 0 287.99568 160.00562v-63.99892A96.638369 96.638369 0 0 0 193.917268 0.00832h-63.99892A96.638369 96.638369 0 0 0 32 96.0067v63.99892A96.638369 96.638369 0 0 0 129.278358 256.004v639.9892a32.639449 32.639449 0 0 0 30.719482 31.99946m639.9892-447.99244a31.99946 31.99946 0 0 1 32.639449-31.99946h63.99892a31.99946 31.99946 0 0 1 32.63945 31.99946v63.99892a31.99946 31.99946 0 0 1-32.63945 31.99946h-63.99892a31.99946 31.99946 0 0 1-32.639449-31.99946z m0 383.99352a31.99946 31.99946 0 0 1 32.639449-31.99946h63.99892a31.99946 31.99946 0 0 1 32.63945 31.99946v63.99892a31.99946 31.99946 0 0 1-32.63945 31.99946h-63.99892a31.99946 31.99946 0 0 1-32.639449-31.99946zM129.278358 192.00508A31.99946 31.99946 0 0 1 95.99892 160.00562v-63.99892a31.99946 31.99946 0 0 1 33.279438-31.99946h63.99892a31.99946 31.99946 0 0 1 30.719482 31.99946v63.99892a31.99946 31.99946 0 0 1-32.639449 31.99946z" fill="" p-id="1573"></path></svg>