<?xml version="1.0" standalone="no"?><!DOCTYPE svg PUBLIC "-//W3C//DTD SVG 1.1//EN" "http://www.w3.org/Graphics/SVG/1.1/DTD/svg11.dtd"><svg t="1521887847364" class="icon" style="" viewBox="0 0 1024 1024" version="1.1" xmlns="http://www.w3.org/2000/svg" p-id="1178" xmlns:xlink="http://www.w3.org/1999/xlink" width="512" height="512"><defs><style type="text/css"></style></defs><path d="M989.866667 955.733333H887.466667V136.533333a34.133333 34.133333 0 0 0-68.266667 0v819.2h-136.533333V273.066667a34.133333 34.133333 0 0 0-68.266667 0v682.666666H477.866667V68.266667a34.133333 34.133333 0 0 0-68.266667 0v887.466666H273.066667V409.6a34.133333 34.133333 0 0 0-68.266667 0v546.133333H102.4a34.133333 34.133333 0 0 1-34.133333-34.133333V34.133333a34.133333 34.133333 0 0 0-68.266667 0v887.466667A102.4 102.4 0 0 0 102.4 1024h887.466667a34.133333 34.133333 0 0 0 0-68.266667z" fill="" p-id="1179"></path></svg>