<?xml version="1.0" standalone="no"?><!DOCTYPE svg PUBLIC "-//W3C//DTD SVG 1.1//EN" "http://www.w3.org/Graphics/SVG/1.1/DTD/svg11.dtd"><svg t="1521887824112" class="icon" style="" viewBox="0 0 1152 1024" version="1.1" xmlns="http://www.w3.org/2000/svg" p-id="1046" xmlns:xlink="http://www.w3.org/1999/xlink" width="576" height="512"><defs><style type="text/css"></style></defs><path d="M880.713498 837.760058A440.318349 440.318349 0 0 1 576.07464 959.9996a447.99832 447.99832 0 0 1-444.158334-447.99832 31.99988 31.99988 0 0 0-60.159775-17.279935L3.276788 631.680831a31.99988 31.99988 0 0 0 14.719945 42.879839 31.359882 31.359882 0 0 0 14.079947 3.199988 31.99988 31.99988 0 0 0 28.799892-17.919932l19.199928-38.399856A511.99808 511.99808 0 0 0 576.07464 1023.99936a504.318109 504.318109 0 0 0 348.798692-139.519477 31.99988 31.99988 0 1 0-44.159834-46.079827zM1134.152547 342.401916a31.99988 31.99988 0 0 0-42.879839 14.719945l-20.479923 41.599844A511.99808 511.99808 0 0 0 576.07464 0.0032a502.398116 502.398116 0 0 0-359.678651 149.759438 31.99988 31.99988 0 1 0 45.439829 44.799832A439.038354 439.038354 0 0 1 576.07464 64.00296a447.99832 447.99832 0 0 1 444.158334 447.99832 31.99988 31.99988 0 0 0 31.99988 31.99988 31.359882 31.359882 0 0 0 30.719885-24.319909l63.99976-134.399496a31.99988 31.99988 0 0 0-12.799952-42.879839z" fill="" p-id="1047"></path><path d="M544.07476 576.00104H371.915406a31.99988 31.99988 0 0 0 0 63.99976H544.07476v191.99928a31.99988 31.99988 0 0 0 63.99976 0v-191.99928h172.159354a31.99988 31.99988 0 0 0 0-63.99976H608.07452V491.521357a30.719885 30.719885 0 0 0 0-8.319969h139.519477a31.99988 31.99988 0 0 0 0-63.99976H652.874352l103.679611-104.319609a31.99988 31.99988 0 0 0-45.439829-44.799832L576.07464 405.761678 441.035146 269.44219a31.99988 31.99988 0 0 0-45.439829 44.799832L499.274928 419.201628H405.835278a31.99988 31.99988 0 0 0 0 63.99976h139.519477a30.719885 30.719885 0 0 0 0 8.319969z" fill="" p-id="1048"></path></svg>